PathFileType	4	(X/Y/Z)	/home/abdul/Documents/myosuite/MHH/MHH/IK/original/output/S5_12_1.trc
DataRate	CameraRate	NumFrames	NumMarkers	Units	OrigDataRate	OrigDataStartFrame	OrigNumFrames
200.0	200.0	68	3	mm	200.0	317	1267
Frame#	Time	V_Shoulder			V_Elbow			V_Wrist		
		X1	Y1	Z1	X2	Y2	Z2	X3	Y3	Z3

317	1.58	-2.5837380625069057	732.8148285092498	255.74292592169277	-147.93693631335742	533.9013588544993	70.65012902586105	13.53306206279131	481.56895850201414	244.5437171216292
318	1.585	-2.447355814512894	733.2276142078422	255.90008484995224	-147.78928264794905	533.3872935281147	71.91289907687569	13.852460353529356	482.88391950063146	246.05177141617867
319	1.59	-2.310760412728006	733.6391219125247	256.0560923338314	-147.63748629396008	532.8783267645147	73.16978144824468	14.171479916580786	484.19029267683214	247.5356968837695
320	1.595	-2.1740554046485934	734.0492290955535	256.21079599717285	-147.48153215337007	532.3749605370875	74.4197222221108	14.49012941745066	485.48825104109807	248.99514066566263
321	1.6	-2.0373438422279286	734.4578174712	256.36404656995074	-147.32140936201185	531.8776815532738	75.6616858721219	14.808408104806889	486.77795996118243	250.42976223678397
322	1.605	-1.9007281234880364	734.8647730355939	256.5156981854821	-147.1571113952403	531.3869603142779	76.89465726334561	15.126305936974381	488.0595762381268	251.8392345525578
323	1.61	-1.7643098374151653	735.2699860936713	256.66560866755714	-146.98863616718373	530.9032502289851	78.1176435899682	15.443803735131585	489.3332472449593	253.22324519044236
324	1.615	-1.6281896124491262	735.6733512733972	256.8136398067511	-146.81598612335077	530.4269867842479	79.32967624557226	15.760873362279371	490.5991101297131	254.58149747981585
325	1.62	-1.4924669688598982	736.0747675274876	256.95965762521547	-146.63916832636886	529.9585867734766	80.5298126210197	16.077477927012616	491.85729108407963	255.91371161395216
326	1.625	-1.3572401752876866	736.4741381228949	257.1035326292878	-146.45819453463338	529.4984475852395	81.71713782521692	16.393572011088967	493.10790467869083	257.2196257379452
327	1.63	-1.2226061097050798	736.8713706183721	257.2451400492974	-146.27308127364807	529.0469465533447	82.89076632430776	16.709101919757444	494.3510532657108	258.49899700659665
328	1.635	-1.0886601250421253	737.26637683047	257.3843600659905	-146.08384989984106	528.6044403696269	84.04984349512449	17.024005953780776	495.58682644910994	259.75160260646265
329	1.64	-0.9554959196971913	737.6590727883663	257.5210780230383	-145.89052665664218	528.1712645604277	85.19354708902839	17.3382147020598	496.8153006226975	260.9772407364703
330	1.645	-0.8232054131383881	738.0493786779647	257.6551846251396	-145.69314272261062	527.7477330275069	86.32108860258701	17.651651353745425	498.03653857570237	262.175731541755
331	1.65	-0.6918786267822058	738.4372187757332	257.786576121275	-145.49173425140367	527.3341376538735	87.43171455186364	17.96423202870309	499.2505891654198	263.34691799563694
332	1.655	-0.561603570317923	738.8225213727924	257.9151544727172	-145.28634240338175	526.9307479747893	88.52470764743559	18.275866125176375	500.45748705618075	264.4906667249497
333	1.66	-0.4324661336283084	739.2052186897882	258.0408275054512	-145.077013368647	526.5378109139381	89.59938786760891	18.586456683479614	501.6572525236595	265.606868774246
334	1.665	-0.3045499844392217	739.585246783117	258.16350904670804	-144.86379838131782	526.1555505845262	90.65511342765627	18.89590076453437	502.8498913233072	266.6954403047484
335	1.67	-0.17793647181301267	739.9625454430919	258.28311904536434	-144.64675372484513	525.7841681548305	91.69128164327242	19.204089842050582	504.03539462149047	267.75632322426515
336	1.675	-0.0527045355830739	740.3370580846628	258.39958367601037	-144.4259407281825	525.4238417774818	92.707329686813	19.51091020714053	505.21373898772276	268.7894857446678
337	1.68	0.07106937819031274	740.7087316313214	258.51283542654306	-144.20142575262673	525.0747265815453	93.70273523525879	19.81624338414167	506.3848864462044	269.7949228639162
338	1.685	0.19331139567969333	741.077516392835	258.6228131691875	-143.97328016915364	524.7369547262333	94.67701700922412	20.119966556413623	507.5487845847336	270.77265677001674
339	1.69	0.31395028761919946	741.4433659374663	258.72946221490395	-143.74158032608034	524.4106355148826	95.62973520270617	20.42195300086421	508.7053667189175	271.72273716471165
340	1.695	0.43291753547211903	741.8062369593457	258.8327343511885	-143.50640750689476	524.0958555676168	96.56049180364684	20.72207252995055	509.8545521094951	272.6452415051187
341	1.7	0.550147391422947	742.1660891416626	258.9325878633236	-143.2678478781025	523.7926790509305	97.46893080575032	21.020191939892705	510.99624623048805	273.54027516195947
342	1.705	0.6655769321951028	742.5228850163503	259.0289875391876	-143.02599242695248	523.5011479622437	98.35473831236582	21.31617546383091	512.1303410858144	274.40797149344485
343	1.71	0.7791461067105692	742.8765898209305	259.12190465778	-142.780936888915	523.2212824673134	99.21764253360342	21.609885228652004	513.2567155719381	275.24849183430877
344	1.715	0.8907977776223586	743.2271713531827	259.21131696166776	-142.53278166479944	522.9530812882238	100.05741367820065	21.901181714207166	514.3752358840816	276.06202539990323
345	1.72	1.0004777567648828	743.5745998242954	259.2972086136067	-142.28163172741444	522.6965221395462	100.87386374199681	22.189924213642097	515.4857559634921	276.8487891056852
346	1.725	1.108134834581028	743.9188477111406	259.37957013763696	-142.02759651769003	522.4515622101187	101.66684619519867	22.47597129356209	516.5881179832409	277.60902730283004
347	1.73	1.2137208035979128	744.2598896083038	259.45839834499776	-141.77078983019948	522.218138687791	102.43625557093472	22.759181252758975	517.6821528700186	278.3430114311045
348	1.735	1.3171904760360678	744.5977020804812	259.53369624524925	-141.5113296880392	521.9961693243763	103.18202695789404	23.03941257823484	518.7676808594034	279.05103959051416
349	1.74	1.418501695648925	744.932263515839	259.60547294303285	-141.24933820704697	521.7855530379697	103.90413540012777	23.31652439726916	519.8445120820841	279.733436033605
350	1.745	1.5176153439011815	745.2635539809029	259.6737435209387	-140.98494144936245	521.5861705497226	104.6025952073574	23.590376924291938	520.912447178548	280.3905505806498
351	1.75	1.6144953406057236	745.591555077527	259.7385289089912	-140.71826926635995	521.3978850521097	105.27745917938074	23.860831901346053	521.971277939767	281.0227579602765
352	1.755	1.709108639149358	745.9162498024638	259.7998557412963	-140.44945513101143	521.2205429056876	105.92881774839572	24.127753030947176	523.0207879714515	281.6304570784068
353	1.76	1.8014252164475992	746.2376224100216	259.8577562004305	-140.17863595976672	521.0539743613192	106.55679804327076	24.391006400180178	524.0607533794753	282.2140702186521
354	1.765	1.8914180577781778	746.5556582782791	259.9122678501821	-139.90595192407022	520.8979943048289	107.1615628799803	24.65046089490618	525.0909434741216	282.7740421775826
355	1.77	1.9790631366517977	746.8703437792823	259.9634334572862	-139.63154625166635	520.75240302106	107.74330968259198	24.905988602995308	526.1111214908332	283.31083933851255
356	1.775	2.0643393898868987	747.1816661536244	260.01130080282036	-139.3555650178811	520.6169869743231	108.30226933934148	25.15746520554587	527.1210453252036	283.8249486876635
357	1.78	2.1472286880628517	747.4896133897752	260.05592248395305	-139.07815692710426	520.4915196022562	108.83870499845688	25.404770355101384	528.1204682799815	284.31687677674444
358	1.785	2.2277158015330163	747.7941741084865	260.0973557067587	-138.7994730847337	520.3757621201617	109.3529108085026	25.647788039932593	529.1091398219113	284.78714863615187
359	1.79	2.305788362185538	748.095337452572	260.1356620708336	-138.51966675988393	520.2694643329412	109.84521060809826	25.886406933511257	530.0868063462708	285.23630664312134
360	1.795	2.381436821145543	748.3930929823254	260.17090734646	-138.2388931392001	520.172365451813	110.31595656993389	26.12052072836627	531.0532119470165	285.6649093492713
361	1.8	2.454654402617565	748.6874305767939	260.2031612450838	-137.95730907215994	520.0841949130761	110.76552780404803	26.350028453580123	532.0080991904844	286.07353027206034
362	1.805	2.5254370540715763	748.9783403411087	260.2324971838779	-137.67507280828755	520.0046731962674	111.194328925362	26.574834775253333	532.9512098906426	286.46275665473684
363	1.81	2.5937833929799092	749.2658125200196	260.25899204517464	-137.39234372674383	519.9335126391544	111.60278859046912	26.79485027933708	533.8822858839303	286.83318819939416
364	1.815	2.6596946503156307	749.5498374177596	260.2827259315546	-137.10928205879978	519.870418247105	111.9913580086662	27.00999173630771	534.8010698017631	287.18543577775455
365	1.82	2.72317461102559	749.830405324327	260.3037819173816	-136.82604860373888	519.8150884944823	112.36050943218385	27.2201823472312	535.7073058388294	287.5201201242978
366	1.825	2.7842295516933917	750.1075064482411	260.32224579757366	-136.54280443877417	519.7672161158272	112.71073463052413	27.42535197084012	536.6007405153466	287.8378705163176
367	1.83	2.8428681756089547	750.3811308557946	260.3382058343971	-136.25971062360333	519.7264888847083	113.04254335374904	27.625437331319333	537.481123431494	288.1393234454422
368	1.835	2.899101545462154	750.651268416796	260.35175250306605	-135.97692790026102	519.6925903782367	113.35646178948186	27.82038220656882	538.3482080122888	288.4251212850892
369	1.84	2.9529430138781927	750.9179087567703	260.3629782369186	-135.6946163889629	519.6652007253751	113.65303101828638	28.010137596782023	539.2017522412243	288.6959109582429
370	1.845	3.0044081520120227	751.1810412155497	260.3719771729355	-135.412935280665	519.643997337288	113.93280547197745	28.1946618732457	540.0415193810463	288.9523426098441
371	1.85	3.0535146764181644	751.4406548121706	260.378844898349	-135.13204252709207	519.628655618119	114.19635139928938	28.37392090733102	540.8672786800997	289.1950682879732
372	1.855	3.1002823744107317	751.6967382159595	260.38367819907654	-134.85209452901432	519.6188496547015	114.44424534319062	28.547888179706128	541.678806062748	289.4247406378846
373	1.86	3.1447330281264523	751.9492797236762	260.3865748106971	-134.5732458235725	519.6142528838509	114.67707263397931	28.716544869856467	542.4758848024258	289.6420116128146
374	1.865	3.186890337500831	752.1982672425553	260.38763317266665	-134.295648771471	519.614538736002	114.895425902132	28.87987992605106	543.2583061759651	289.8475312053431
375	1.87	3.2267798423645515	752.443688279072	260.3869521864478	-134.01945324487275	519.6193812541035	115.09990361470172	29.037890115940105	544.025870097904	290.0419462029324
376	1.875	3.2644288438635893	752.6855299332428	260.38463097820494	-133.74480631684	519.6284556867968	115.29110863887693	29.19058005801212	544.778385733569	290.2258989711083
377	1.88	3.2998663254024674	752.9237788982522	260.380768666691	-133.4718519531729	519.6414390550417	115.46964683611881	29.33796223417704	545.5156720898024	290.40002626757234
378	1.885	3.333122873305557	753.158421465186	260.37546413692394	-133.2007307074988	519.6580106914805	115.63612569009047	29.480056983775622	546.237558582287	290.56495809036437
379	1.89	3.3642305973863955	753.3894435326465	260.36881582022255	-132.93157942046577	519.6778527519514	115.79115297138279	29.616892479345438	546.9438855785102	290.72131656300337
380	1.895	3.393223051609597	753.6168306210037	260.36092148113977	-132.66453092388687	519.7006506986932	115.93533544182375	29.748504684499974	547.6345049154918	290.8697148593501
381	1.9	3.4201351550242083	753.8405678910436	260.3518780118015	-132.39971375067375	519.7260937548997	116.06927760093603	29.874937294300413	548.3092803914838	291.0107561707367
382	1.905	3.4450031131412078	754.060640166761	260.3417812341237	-132.13725185138492	519.7538753304061	116.1935804768816	29.996241658519956	548.9680882309395	291.1450327177091
383	1.91	3.4678643399213427	754.2770319620416	260.3307257103477	-131.87726431819817	519.7836934184018	116.30884046400104	30.112476688218578	549.6108175221289	291.2731248085236
384	1.915	3.488757380532654	754.489727510986	260.3188045622979	-131.619865117098	519.815250963185	116.41564820882401	30.223708746062492	550.2373706268495	291.3955999463295
